<?xml version="1.0" encoding="utf-8"?>
<!-- Svg Vector Icons : http://www.onlinewebfonts.com/icon -->
<!DOCTYPE svg PUBLIC "-//W3C//DTD SVG 1.1//EN" "http://www.w3.org/Graphics/SVG/1.1/DTD/svg11.dtd">
<svg version="1.1" xmlns="http://www.w3.org/2000/svg" xmlns:xlink="http://www.w3.org/1999/xlink" x="0px" y="0px" viewBox="0 0 256 256" enable-background="new 0 0 256 256" xml:space="preserve">
<metadata> Svg Vector Icons : http://www.onlinewebfonts.com/icon </metadata>
<g><g><path fill="#000000" d="M147.5,101.4c-0.2-1.8-0.3-3.8-2.5-4.4c-2.7-0.7-5.4-1.6-8.1-2c-14-1.7-28.2-0.6-42.3-2.6c-0.7-0.1-1.4-0.2-2,0.7c-3.4,5.3-6.4,10-0.9,16.5c1,1.2,1.8,2.7,2.5,4.1c2.1,4.3,5.2,7.6,9.2,10.2c10.5,6.9,22.4,8.9,34.5,10.6c3.5,0.5,4.9-1,5.6-4.1c0.7-3.2,1.1-6.4,2.6-9.3c3.3-5.9,3.4-12.1,1.8-18.4C147.3,102.4,147.4,101.9,147.5,101.4z"/><path fill="#000000" d="M85.9,101.1c-0.5-0.2-1.2-0.1-1.3,0.5c-0.2,1.8,0.6,3,2.4,3.8C86.9,103.8,88,102,85.9,101.1z"/><path fill="#000000" d="M198.3,215.3c-10.7-1.5-17.7-8.2-22.4-17.2c-7-13.5-12.3-27.9-16.6-42.5c-3.1-10.8-5.6-21.7-11.9-31.3c-0.7-1-0.7-2.2-0.7-3.4c-0.3-6.7,1.4-12.8,4.7-18.8c4.7-8.5,8.7-17.5,8.8-27.6c0.1-5.1,1.1-10,2-15c2.9-16.4,4.3-32.8,1.9-49.4c-1.6,0.3-0.4,1.9-1.1,2.6c-1.5,0.2-0.8-1.9-2-2c-0.4,0-0.8,0.1-1.2,0.4c-0.3,0.3-0.4,0.7-0.6,1.1c-0.2,0.8-0.6,1.6-0.3,2.5c0.4,2,0.5,4.1,1.4,5.9c1.8,3.8,1.7,7.5,0.7,11.3c-3,11.5-5,23.1-6.6,34.8c-0.7,5.2-2.1,10.3-3.3,15.5c-0.3,1.3-1,2.3-2.5,2.6c-1.5,0.2-2.2-0.7-2.9-1.6c-1.3-1.5-2.1-3.3-2.7-5.1c-0.6-2-0.7-3.9,2-4.9c2.7-1,3.5-3.6,2.9-6.2c-0.5-2-0.5-4-0.9-6c-0.4-2.1-0.9-4.2-2.2-6c-3.1-4.3-8.1-4.6-11.4-0.6c-1.1,1.3-2.4,2.7-2.9,4.2c-1.7,4.7-3.6,9.4,0.3,14.3c2.2,2.8,3.1,6.4,3,10c0,2.4-0.8,3.8-3.7,3.6c-2.2-0.2-4.5,0.3-6.7,0.5c-4.5,0.5-9,1.9-13.5,1.6c-11.2-0.7-22.4,0.1-33.6,0.4c-7.3,0.2-13,2.3-17.1,8.6c-3.2,4.7-3.3,6.5,1.6,9.6c2.8,1.8,2.7,3.5,1.3,5.8c-0.6,0.9-1.2,1.8-1.8,2.7c-2.8,4-5.5,7.9-8.3,11.9c-1.4,2-1.8,3.8-0.3,6.2c2.2,3.3,1,6.7-2.6,8.5c-5.4,2.8-6.4,5.3-4.4,11.3c1.2,3.7,2.2,7.4,1.1,11.4c-0.5,1.6-2.6,3.1-1.3,4.6c1.2,1.3,3.5,0.5,5.3,0.7c0.3,0,0.7,0,1,0c3.4,0,6.5,0.5,9.1,3.2c2.4,2.4,5.3,4.2,9,2.6c0.5-0.2,1.1,0,1.4,0.6c-0.8,1.4-3.7,3.4-0.3,4.2c4,1,3.2,2.8,2.1,5.2c-2.1,4.9-1.3,9.1,2.7,12.9c2,1.9,4,4.1,3.4,7.4l0,0c1.9,2.8,5.6,4.6,4.7,9c-0.1,0.6,0.7,1.6,1.3,2.1c3.2,2.7,6.8,4.8,10.7,5.6c2.8,0.6,5,1.7,7,3.5c1.8,1.7,3.5,3.5,5.4,5.2c2.4,2.2,3.7,1.8,4.5-1.4c0.2-0.8,0.1-1.7,0.2-2.6c0-2-2.4-4.7,1.7-5.4c0.1,0,0.1-0.4,0.1-0.6c-0.4-3.7,1.5-1.4,2.3-0.8c1.5,1.3,2.2,3.2,0.9,4.9c-1.6,2.2-0.5,3.2,1,4.6c0.9,0.8,3,1.6,1.7,3.2c-2.2,2.8-3,7.2-7.9,7.3c-0.5,0-1.4,0.1-1.4,1c-0.1,0.9,0.4,1.4,1.2,1.8c2.7,1.2,5.4,1.6,8-0.1c1.9-1.2,3.6-2.7,5.5-4c2.2-1.5,3.8-1.1,4.3,1.5c0.4,2,2.1,1.6,2.5,0.9c1.5-2.7,4-1.4,6-2c2.6-0.8,3.1,0.1,2.3,2.4c-0.5,1.3-0.3,2.3,0.9,3.1c1.6,0.9,3.1,0.1,4.2-0.6c1.7-1.2,1.5-1.4,3-0.3c0.5,1.1,1.4,1.6,2.6,1.3c4.7,0.2,9.2-1,13.8-1.5c4.1-0.4,7.8-3.5,12.3-2.3c0.3,0.1,1-0.3,1-0.5c-0.3-2.8,1.9-1.9,3.2-2c4.9-0.5,9.1-2.5,13.1-5.2c0.5-0.3,1.1-0.7,1.2-1.4c1.3-5.8,4.9-9.8,10-12.4c3-1.5,5.5-3.2,7.2-6.7C207.3,215.1,202.9,215.9,198.3,215.3z M63,107.9c-1.9-0.8-2.6-2-2.4-3.8c0.1-0.6,0.9-0.7,1.3-0.5C63.9,104.6,62.8,106.3,63,107.9z M122,123.7c-1.6,2.9-2,6.1-2.6,9.3c-0.7,3.1-2,4.6-5.6,4.1c-12.1-1.7-24.1-3.7-34.5-10.6c-3.9-2.6-7.1-6-9.2-10.2c-0.7-1.4-1.5-2.9-2.5-4.1c-5.4-6.5-2.5-11.2,0.9-16.5c0.6-0.9,1.3-0.8,2-0.7c14,2,28.2,0.9,42.3,2.6c2.7,0.3,5.4,1.2,8.1,2c2.2,0.6,2.3,2.6,2.5,4.4c-0.2,0.5-0.2,1,0.4,1.4C125.4,111.7,125.3,117.8,122,123.7z"/></g></g>
</svg>